<?xml version="1.0" encoding="UTF-8" standalone="no" ?>
<!DOCTYPE svg PUBLIC "-//W3C//DTD SVG 1.1//EN" "http://www.w3.org/Graphics/SVG/1.1/DTD/svg11.dtd">
<svg xmlns="http://www.w3.org/2000/svg" xmlns:xlink="http://www.w3.org/1999/xlink" version="1.1" width="500" height="500" viewBox="0 0 500 500" xml:space="preserve">
<desc>Created with Fabric.js 4.6.0</desc>
<defs>
</defs>
<g transform="matrix(2.26 0 0 2.02 109.23 372.65)" id="SRcfYeYbaGJ4Fxuv3rJt0"  >
<path style="stroke: rgb(0,0,0); stroke-width: 1; stroke-dasharray: none; stroke-linecap: butt; stroke-dashoffset: 0; stroke-linejoin: miter; stroke-miterlimit: 4; fill: rgb(107,110,249); fill-opacity: 0; fill-rule: nonzero; opacity: 1;" vector-effect="non-scaling-stroke"  transform=" translate(0, 0)" d="M 0 0" stroke-linecap="round" />
</g>
<g transform="matrix(1.42 0 0 1.41 250 250)" id="B8VcCxslF1FR7Gb5EjoyC"  >
<path style="stroke: rgb(202,123,18); stroke-width: 0; stroke-dasharray: none; stroke-linecap: butt; stroke-dashoffset: 0; stroke-linejoin: miter; stroke-miterlimit: 4; fill: rgb(107,110,249); fill-rule: nonzero; opacity: 1;" vector-effect="non-scaling-stroke"  transform=" translate(-71.17, -123.66)" d="M 0 37.74543 C 0 16.8992 16.89921 0 37.74543 0 L 104.60151 0 C 125.44774000000001 0 142.34694000000002 16.89921 142.34694000000002 37.74543 L 142.34694000000002 209.58238 C 142.34694000000002 230.42861 125.44773000000002 247.32781 104.60151000000002 247.32781 L 37.74543000000001 247.32781 C 16.899200000000015 247.32781 1.4210854715202004e-14 230.4286 1.4210854715202004e-14 209.58238 z M 39.6046 88.06924 C 39.6046 95.46628999999999 45.60109 101.46278 52.99814 101.46278 L 89.34881 101.46278 C 96.74586 101.46278 102.74235 95.46629 102.74235 88.06924 L 102.74235 51.71856999999999 C 102.74235 44.32151999999999 96.74586000000001 38.32502999999999 89.34881 38.32502999999999 L 52.99814 38.32502999999999 C 45.60109 38.32502999999999 39.6046 44.32151999999999 39.6046 51.71856999999999 z M 39.6046 183.93924 C 39.6046 191.33629000000002 45.60109 197.33278 52.99814 197.33278 L 57.78092 197.33278 L 57.78092 183.24019 C 57.78092 180.10205000000002 60.32489 177.55808000000002 63.46303 177.55808000000002 L 78.88454 177.55808000000002 C 82.02268000000001 177.55808000000002 84.56665 180.10205000000002 84.56665 183.24019 L 84.56665 197.33278 L 89.34881 197.33278 C 96.74586 197.33278 102.74235 191.33629000000002 102.74235 183.93924 L 102.74235 147.58857 C 102.74235 140.19152 96.74586000000001 134.19503 89.34881 134.19503 L 52.99814 134.19503 C 45.60109 134.19503 39.6046 140.19152 39.6046 147.58857 z" stroke-linecap="round" />
</g>
</svg>